Coordinates
version=1
nRows=17
nColumns=24
inDegrees=yes

Units are S.I. units (second, meters, Newtons, ...)
Angles are in degrees.

endheader
time	pelvis_tilt	pelvis_list	pelvis_rotation	pelvis_tx	pelvis_ty	pelvis_tz	hip_flexion_r	hip_adduction_r	hip_rotation_r	knee_angle_r	ankle_angle_r	subtalar_angle_r	mtp_angle_r	hip_flexion_l	hip_adduction_l	hip_rotation_l	knee_angle_l	ankle_angle_l	subtalar_angle_l	mtp_angle_l	lumbar_extension	lumbar_bending	lumbar_rotation
      1.48000000	     91.06937195	     33.99031050	    -92.44455900	      1.02364477	      0.28513846	      1.07624178	     22.21641231	     -5.25870803	     -1.15383923	    -19.78112150	    -13.31573490	      0.00000000	      0.00000000	     11.37412077	     -7.31375352	     -6.35105332	    -73.41344871	    -10.53714679	      0.00000000	      0.00000000	      0.00000000	      0.00000000	      0.00000000
      1.49000000	     91.07179387	     33.99576339	    -92.44292082	      1.02364171	      0.28515487	      1.07627485	     22.20634795	     -5.26029478	     -1.17152241	    -19.76070987	    -13.30552553	      0.00000000	      0.00000000	     11.37648219	     -7.30892591	     -6.34832346	    -73.40845872	    -10.53934449	      0.00000000	      0.00000000	      0.00000000	      0.00000000	      0.00000000
      1.50000000	     91.07884947	     33.99776740	    -92.44554410	      1.02364416	      0.28518450	      1.07630999	     22.20036250	     -5.26957824	     -1.21327926	    -19.75138034	    -13.31167153	      0.00000000	      0.00000000	     11.37369279	     -7.29807096	     -6.34701577	    -73.40185268	    -10.54203949	      0.00000000	      0.00000000	      0.00000000	      0.00000000	      0.00000000
      1.51000000	     91.09029998	     33.99046596	    -92.45216986	      1.02363653	      0.28522101	      1.07630732	     22.20432231	     -5.28548688	     -1.27252181	    -19.76485314	    -13.35457366	      0.00000000	      0.00000000	     11.36137487	     -7.28229949	     -6.34803335	    -73.39587214	    -10.54542057	      0.00000000	      0.00000000	      0.00000000	      0.00000000	      0.00000000
      1.52000000	     91.10442589	     33.97057802	    -92.46088553	      1.02359557	      0.28525070	      1.07624376	     22.22146694	     -5.30353316	     -1.33322232	    -19.80560353	    -13.43832502	      0.00000000	      0.00000000	     11.33905411	     -7.26505843	     -6.35248402	    -73.39302928	    -10.55011926	      0.00000000	      0.00000000	      0.00000000	      0.00000000	      0.00000000
      1.53000000	     91.11695142	     33.94245301	    -92.46882993	      1.02352782	      0.28526546	      1.07616826	     22.24622568	     -5.31638370	     -1.37113063	    -19.86621658	    -13.53865360	      0.00000000	      0.00000000	     11.31357966	     -7.25250668	     -6.36077326	    -73.39471263	    -10.55686194	      0.00000000	      0.00000000	      0.00000000	      0.00000000	      0.00000000
      1.54000000	     91.12046950	     33.92166948	    -92.47381702	      1.02348828	      0.28526784	      1.07618836	     22.26090843	     -5.31550381	     -1.35843988	    -19.92514090	    -13.60006654	      0.00000000	      0.00000000	     11.29944891	     -7.25283898	     -6.37141618	    -73.40028663	    -10.56610437	      0.00000000	      0.00000000	      0.00000000	      0.00000000	      0.00000000
      1.55000000	     91.10602482	     33.93083823	    -92.47464054	      1.02353977	      0.28525672	      1.07633098	     22.24369928	     -5.29286703	     -1.27230677	    -19.94690177	    -13.54713938	      0.00000000	      0.00000000	     11.31249645	     -7.27390100	     -6.38051185	    -73.40779876	    -10.57803631	      0.00000000	      0.00000000	      0.00000000	      0.00000000	      0.00000000
      1.56000000	     91.06806417	     33.98323577	    -92.46827920	      1.02367243	      0.28520487	      1.07642385	     22.19016496	     -5.24155766	     -1.10576936	    -19.88646903	    -13.31073761	      0.00000000	      0.00000000	     11.35854948	     -7.31926967	     -6.38297353	    -73.41601465	    -10.59289713	      0.00000000	      0.00000000	      0.00000000	      0.00000000	      0.00000000
      1.57000000	     91.01086502	     34.06216456	    -92.44695097	      1.02377248	      0.28507422	      1.07626484	     22.13271052	     -5.15602273	     -0.87726528	    -19.70397451	    -12.86383770	      0.00000000	      0.00000000	     11.42633938	     -7.38468745	     -6.37557661	    -73.42566742	    -10.61098408	      0.00000000	      0.00000000	      0.00000000	      0.00000000	      0.00000000
      1.58000000	     90.95039176	     34.12135313	    -92.40263084	      1.02371319	      0.28488608	      1.07598593	     22.12735288	     -5.03564224	     -0.63341023	    -19.39627364	    -12.25460130	      0.00000000	      0.00000000	     11.49410557	     -7.45790350	     -6.35989908	    -73.43789009	    -10.63186027	      0.00000000	      0.00000000	      0.00000000	      0.00000000	      0.00000000
      1.59000000	     90.90539149	     34.12682131	    -92.34136732	      1.02349053	      0.28474356	      1.07596789	     22.19610746	     -4.89453722	     -0.43991407	    -19.03529580	    -11.61825507	      0.00000000	      0.00000000	     11.54594312	     -7.52310134	     -6.34242106	    -73.45091370	    -10.65327980	      0.00000000	      0.00000000	      0.00000000	      0.00000000	      0.00000000
      1.60000000	     90.88231378	     34.10549143	    -92.29202630	      1.02323573	      0.28471321	      1.07616344	     22.27910967	     -4.77012867	     -0.35878194	    -18.77005979	    -11.14851086	      0.00000000	      0.00000000	     11.58003444	     -7.56696628	     -6.33097024	    -73.45932830	    -10.67119119	      0.00000000	      0.00000000	      0.00000000	      0.00000000	      0.00000000
      1.61000000	     90.87313925	     34.11550561	    -92.28626618	      1.02311329	      0.28473299	      1.07610344	     22.28744253	     -4.71128944	     -0.41833034	    -18.74553527	    -11.02319230	      0.00000000	      0.00000000	     11.59865367	     -7.58195499	     -6.32987572	    -73.45815774	    -10.68146867	      0.00000000	      0.00000000	      0.00000000	      0.00000000	      0.00000000
      1.62000000	     90.87260757	     34.15608076	    -92.32339333	      1.02321387	      0.28473963	      1.07584998	     22.21785850	     -4.74442106	     -0.59502841	    -18.98632223	    -11.31482333	      0.00000000	      0.00000000	     11.59464324	     -7.56596623	     -6.33741300	    -73.44764473	    -10.68214612	      0.00000000	      0.00000000	      0.00000000	      0.00000000	      0.00000000
      1.63000000	     90.88921467	     34.16460843	    -92.36961024	      1.02345841	      0.28480313	      1.07592462	     22.15641844	     -4.85198883	     -0.82572387	    -19.37694542	    -11.94461923	      0.00000000	      0.00000000	     11.55556030	     -7.52161316	     -6.34714019	    -73.43300474	    -10.67426093	      0.00000000	      0.00000000	      0.00000000	      0.00000000	      0.00000000
      1.64000000	     90.93106777	     34.10737993	    -92.39544768	      1.02363192	      0.28498746	      1.07630358	     22.16527201	     -4.98993177	     -1.04271843	    -19.75745247	    -12.71216197	      0.00000000	      0.00000000	     11.48186034	     -7.45669287	     -6.35203436	    -73.41969721	    -10.66092804	      0.00000000	      0.00000000	      0.00000000	      0.00000000	      0.00000000
